<mxfile host="65bd71144e">
    <diagram id="vHOYkKiMC-4O6WLDuBYB" name="Página-1">
        <mxGraphModel dx="316" dy="577" grid="1" gridSize="10" guides="1" tooltips="1" connect="1" arrows="1" fold="1" page="1" pageScale="1" pageWidth="827" pageHeight="1169" math="0" shadow="0">
            <root>
                <mxCell id="0"/>
                <mxCell id="1" parent="0"/>
                <mxCell id="39" value="" style="edgeStyle=none;html=1;startArrow=ERoneToMany;startFill=0;endArrow=ERzeroToMany;endFill=0;" parent="1" source="2" target="23" edge="1">
                    <mxGeometry relative="1" as="geometry"/>
                </mxCell>
                <mxCell id="2" value="Product" style="swimlane;fontStyle=0;childLayout=stackLayout;horizontal=1;startSize=30;horizontalStack=0;resizeParent=1;resizeParentMax=0;resizeLast=0;collapsible=1;marginBottom=0;whiteSpace=wrap;html=1;" parent="1" vertex="1">
                    <mxGeometry x="205" y="40" width="150" height="130" as="geometry"/>
                </mxCell>
                <mxCell id="3" value="- sku: string" style="text;strokeColor=none;fillColor=none;align=left;verticalAlign=middle;spacingLeft=4;spacingRight=4;overflow=hidden;points=[[0,0.5],[1,0.5]];portConstraint=eastwest;rotatable=0;whiteSpace=wrap;html=1;fontStyle=0" parent="2" vertex="1">
                    <mxGeometry y="30" width="150" height="20" as="geometry"/>
                </mxCell>
                <mxCell id="4" value="- name: string" style="text;strokeColor=none;fillColor=none;align=left;verticalAlign=middle;spacingLeft=4;spacingRight=4;overflow=hidden;points=[[0,0.5],[1,0.5]];portConstraint=eastwest;rotatable=0;whiteSpace=wrap;html=1;" parent="2" vertex="1">
                    <mxGeometry y="50" width="150" height="20" as="geometry"/>
                </mxCell>
                <mxCell id="7" value="- desciption: string" style="text;strokeColor=none;fillColor=none;align=left;verticalAlign=middle;spacingLeft=4;spacingRight=4;overflow=hidden;points=[[0,0.5],[1,0.5]];portConstraint=eastwest;rotatable=0;whiteSpace=wrap;html=1;" parent="2" vertex="1">
                    <mxGeometry y="70" width="150" height="20" as="geometry"/>
                </mxCell>
                <mxCell id="5" value="- price: float" style="text;strokeColor=none;fillColor=none;align=left;verticalAlign=middle;spacingLeft=4;spacingRight=4;overflow=hidden;points=[[0,0.5],[1,0.5]];portConstraint=eastwest;rotatable=0;whiteSpace=wrap;html=1;" parent="2" vertex="1">
                    <mxGeometry y="90" width="150" height="20" as="geometry"/>
                </mxCell>
                <mxCell id="6" value="- images: string[] (base64)" style="text;strokeColor=none;fillColor=none;align=left;verticalAlign=middle;spacingLeft=4;spacingRight=4;overflow=hidden;points=[[0,0.5],[1,0.5]];portConstraint=eastwest;rotatable=0;whiteSpace=wrap;html=1;" parent="2" vertex="1">
                    <mxGeometry y="110" width="150" height="20" as="geometry"/>
                </mxCell>
                <mxCell id="21" style="edgeStyle=none;html=1;startArrow=ERmandOne;startFill=0;endArrow=ERzeroToMany;endFill=0;" parent="1" source="8" target="14" edge="1">
                    <mxGeometry relative="1" as="geometry"/>
                </mxCell>
                <mxCell id="37" style="edgeStyle=none;html=1;startArrow=ERzeroToMany;startFill=0;endArrow=ERzeroToMany;endFill=0;" parent="1" source="8" target="23" edge="1">
                    <mxGeometry relative="1" as="geometry">
                        <mxPoint x="480" y="50" as="targetPoint"/>
                    </mxGeometry>
                </mxCell>
                <mxCell id="8" value="Customer (user)" style="swimlane;fontStyle=0;childLayout=stackLayout;horizontal=1;startSize=30;horizontalStack=0;resizeParent=1;resizeParentMax=0;resizeLast=0;collapsible=1;marginBottom=0;whiteSpace=wrap;html=1;" parent="1" vertex="1">
                    <mxGeometry x="205" y="400" width="195" height="270" as="geometry"/>
                </mxCell>
                <mxCell id="9" value="- id: string&lt;br&gt;(da tabela usuários)" style="text;strokeColor=none;fillColor=none;align=left;verticalAlign=middle;spacingLeft=4;spacingRight=4;overflow=hidden;points=[[0,0.5],[1,0.5]];portConstraint=eastwest;rotatable=0;whiteSpace=wrap;html=1;fontStyle=1" parent="8" vertex="1">
                    <mxGeometry y="30" width="195" height="40" as="geometry"/>
                </mxCell>
                <mxCell id="42" value="- role: string" style="text;strokeColor=none;fillColor=none;align=left;verticalAlign=middle;spacingLeft=4;spacingRight=4;overflow=hidden;points=[[0,0.5],[1,0.5]];portConstraint=eastwest;rotatable=0;whiteSpace=wrap;html=1;" vertex="1" parent="8">
                    <mxGeometry y="70" width="195" height="20" as="geometry"/>
                </mxCell>
                <mxCell id="10" value="- name: string" style="text;strokeColor=none;fillColor=none;align=left;verticalAlign=middle;spacingLeft=4;spacingRight=4;overflow=hidden;points=[[0,0.5],[1,0.5]];portConstraint=eastwest;rotatable=0;whiteSpace=wrap;html=1;" parent="8" vertex="1">
                    <mxGeometry y="90" width="195" height="20" as="geometry"/>
                </mxCell>
                <mxCell id="54" value="- password: string" style="text;strokeColor=none;fillColor=none;align=left;verticalAlign=middle;spacingLeft=4;spacingRight=4;overflow=hidden;points=[[0,0.5],[1,0.5]];portConstraint=eastwest;rotatable=0;whiteSpace=wrap;html=1;" vertex="1" parent="8">
                    <mxGeometry y="110" width="195" height="20" as="geometry"/>
                </mxCell>
                <mxCell id="53" value="- cpf: string [0..1]," style="text;strokeColor=none;fillColor=none;align=left;verticalAlign=middle;spacingLeft=4;spacingRight=4;overflow=hidden;points=[[0,0.5],[1,0.5]];portConstraint=eastwest;rotatable=0;whiteSpace=wrap;html=1;" vertex="1" parent="8">
                    <mxGeometry y="130" width="195" height="20" as="geometry"/>
                </mxCell>
                <mxCell id="51" value="- cep: string(8) [0..1]" style="text;strokeColor=none;fillColor=none;align=left;verticalAlign=middle;spacingLeft=4;spacingRight=4;overflow=hidden;points=[[0,0.5],[1,0.5]];portConstraint=eastwest;rotatable=0;whiteSpace=wrap;html=1;" vertex="1" parent="8">
                    <mxGeometry y="150" width="195" height="20" as="geometry"/>
                </mxCell>
                <mxCell id="50" value="- state: string(2)&amp;nbsp;[0..1]" style="text;strokeColor=none;fillColor=none;align=left;verticalAlign=middle;spacingLeft=4;spacingRight=4;overflow=hidden;points=[[0,0.5],[1,0.5]];portConstraint=eastwest;rotatable=0;whiteSpace=wrap;html=1;" vertex="1" parent="8">
                    <mxGeometry y="170" width="195" height="20" as="geometry"/>
                </mxCell>
                <mxCell id="49" value="- neighborhood: string&amp;nbsp;[0..1]" style="text;strokeColor=none;fillColor=none;align=left;verticalAlign=middle;spacingLeft=4;spacingRight=4;overflow=hidden;points=[[0,0.5],[1,0.5]];portConstraint=eastwest;rotatable=0;whiteSpace=wrap;html=1;" vertex="1" parent="8">
                    <mxGeometry y="190" width="195" height="20" as="geometry"/>
                </mxCell>
                <mxCell id="46" value="- compliment: string [0..1]" style="text;strokeColor=none;fillColor=none;align=left;verticalAlign=middle;spacingLeft=4;spacingRight=4;overflow=hidden;points=[[0,0.5],[1,0.5]];portConstraint=eastwest;rotatable=0;whiteSpace=wrap;html=1;" vertex="1" parent="8">
                    <mxGeometry y="210" width="195" height="20" as="geometry"/>
                </mxCell>
                <mxCell id="48" value="- streetNumber: number&amp;nbsp;[0..1]" style="text;strokeColor=none;fillColor=none;align=left;verticalAlign=middle;spacingLeft=4;spacingRight=4;overflow=hidden;points=[[0,0.5],[1,0.5]];portConstraint=eastwest;rotatable=0;whiteSpace=wrap;html=1;" vertex="1" parent="8">
                    <mxGeometry y="230" width="195" height="20" as="geometry"/>
                </mxCell>
                <mxCell id="45" value="- street: string&amp;nbsp;[0..1]" style="text;strokeColor=none;fillColor=none;align=left;verticalAlign=middle;spacingLeft=4;spacingRight=4;overflow=hidden;points=[[0,0.5],[1,0.5]];portConstraint=eastwest;rotatable=0;whiteSpace=wrap;html=1;" vertex="1" parent="8">
                    <mxGeometry y="250" width="195" height="20" as="geometry"/>
                </mxCell>
                <mxCell id="14" value="Payment" style="swimlane;fontStyle=0;childLayout=stackLayout;horizontal=1;startSize=30;horizontalStack=0;resizeParent=1;resizeParentMax=0;resizeLast=0;collapsible=1;marginBottom=0;whiteSpace=wrap;html=1;" parent="1" vertex="1">
                    <mxGeometry x="205" y="720" width="195" height="110" as="geometry"/>
                </mxCell>
                <mxCell id="16" value="- type: string" style="text;strokeColor=none;fillColor=none;align=left;verticalAlign=middle;spacingLeft=4;spacingRight=4;overflow=hidden;points=[[0,0.5],[1,0.5]];portConstraint=eastwest;rotatable=0;whiteSpace=wrap;html=1;" parent="14" vertex="1">
                    <mxGeometry y="30" width="195" height="20" as="geometry"/>
                </mxCell>
                <mxCell id="18" value="- cardNumber: string&amp;nbsp;[0..1]" style="text;strokeColor=none;fillColor=none;align=left;verticalAlign=middle;spacingLeft=4;spacingRight=4;overflow=hidden;points=[[0,0.5],[1,0.5]];portConstraint=eastwest;rotatable=0;whiteSpace=wrap;html=1;" parent="14" vertex="1">
                    <mxGeometry y="50" width="195" height="20" as="geometry"/>
                </mxCell>
                <mxCell id="17" value="- cvv: string(3)&amp;nbsp;[0..1]" style="text;strokeColor=none;fillColor=none;align=left;verticalAlign=middle;spacingLeft=4;spacingRight=4;overflow=hidden;points=[[0,0.5],[1,0.5]];portConstraint=eastwest;rotatable=0;whiteSpace=wrap;html=1;" parent="14" vertex="1">
                    <mxGeometry y="70" width="195" height="20" as="geometry"/>
                </mxCell>
                <mxCell id="19" value="- boletoCode: string&amp;nbsp;[0..1]" style="text;strokeColor=none;fillColor=none;align=left;verticalAlign=middle;spacingLeft=4;spacingRight=4;overflow=hidden;points=[[0,0.5],[1,0.5]];portConstraint=eastwest;rotatable=0;whiteSpace=wrap;html=1;" parent="14" vertex="1">
                    <mxGeometry y="90" width="195" height="20" as="geometry"/>
                </mxCell>
                <mxCell id="23" value="Sales" style="swimlane;fontStyle=0;childLayout=stackLayout;horizontal=1;startSize=30;horizontalStack=0;resizeParent=1;resizeParentMax=0;resizeLast=0;collapsible=1;marginBottom=0;whiteSpace=wrap;html=1;" parent="1" vertex="1">
                    <mxGeometry x="205" y="240" width="140" height="90" as="geometry"/>
                </mxCell>
                <mxCell id="25" value="- createdAt: Date" style="text;strokeColor=none;fillColor=none;align=left;verticalAlign=middle;spacingLeft=4;spacingRight=4;overflow=hidden;points=[[0,0.5],[1,0.5]];portConstraint=eastwest;rotatable=0;whiteSpace=wrap;html=1;" parent="23" vertex="1">
                    <mxGeometry y="30" width="140" height="20" as="geometry"/>
                </mxCell>
                <mxCell id="27" value="- totalValue: float" style="text;strokeColor=none;fillColor=none;align=left;verticalAlign=middle;spacingLeft=4;spacingRight=4;overflow=hidden;points=[[0,0.5],[1,0.5]];portConstraint=eastwest;rotatable=0;whiteSpace=wrap;html=1;" parent="23" vertex="1">
                    <mxGeometry y="50" width="140" height="20" as="geometry"/>
                </mxCell>
                <mxCell id="28" value="- totalAmount: int" style="text;strokeColor=none;fillColor=none;align=left;verticalAlign=middle;spacingLeft=4;spacingRight=4;overflow=hidden;points=[[0,0.5],[1,0.5]];portConstraint=eastwest;rotatable=0;whiteSpace=wrap;html=1;" parent="23" vertex="1">
                    <mxGeometry y="70" width="140" height="20" as="geometry"/>
                </mxCell>
                <mxCell id="43" value="&lt;b&gt;role:&lt;/b&gt;&lt;br&gt;client, seller, admin" style="shape=note;size=20;whiteSpace=wrap;html=1;" vertex="1" parent="1">
                    <mxGeometry x="400" y="400" width="120" height="40" as="geometry"/>
                </mxCell>
            </root>
        </mxGraphModel>
    </diagram>
</mxfile>